<svg width="113" height="60" viewBox="0 0 113 60" fill="none" xmlns="http://www.w3.org/2000/svg">
<rect x="0.5" y="0.5" width="112" height="59" rx="4.5" stroke="#7B61FF" stroke-dasharray="10 5"/>
<path d="M32 21C29.8 21 28 22.8 28 25V27H25V31H28V39H32V31H35V27H32V25H35V21H32Z" fill="#83B3D3"/>
<path d="M56.6 22.1942C58.4 21.6942 59.8 22.4942 60.4 23.3942C61.1 23.1942 61.8 22.8942 62.5 22.6942C62.5 23.5942 61.9 24.1942 61.6 24.4942C62.3 24.5942 63 23.8942 63 23.8942C62.8 24.8942 61.9 25.6942 61.3 25.8942C61.1 32.6942 58 37.0942 50.7 36.9942C50.1 36.9942 50.8 36.9942 50.2 36.9942C49.8 36.9942 45.8 36.4942 45 35.0942C47.4 35.2942 49.1 34.6942 50 33.8942C49 33.5942 47.1 33.4942 46.8 30.9942C47.2 31.0942 47.4 31.1942 48.1 31.0942C46.8 30.2942 45.4 29.4942 45.5 27.2942C45.8 27.5942 46.6 27.7942 46.9 27.7942C46.1 27.5942 44.8 24.4942 45.9 22.8942C47.8 24.7942 49.9 26.4942 53.5 26.6942C53.7 24.2942 54.7 22.7942 56.6 22.1942Z" fill="#83B3D3"/>
<path fill-rule="evenodd" clip-rule="evenodd" d="M90.8136 23.4182C91.6746 23.6487 92.3513 24.3253 92.5818 25.1864C92.9983 26.7455 93 30.0003 93 30.0003C93 30.0003 93 33.2552 92.5818 34.8143C92.3513 35.6753 91.6746 36.352 90.8136 36.5825C89.2545 37.0007 83 37.0007 83 37.0007C83 37.0007 76.7455 37.0007 75.1864 36.5825C74.3253 36.352 73.6487 35.6753 73.4182 34.8143C73 33.2552 73 30.0003 73 30.0003C73 30.0003 73 26.7455 73.4182 25.1864C73.6487 24.3253 74.3253 23.6487 75.1864 23.4182C76.7455 23 83 23 83 23C83 23 89.2545 23 90.8136 23.4182ZM86.194 30.0006L80.9981 33.0002V27.0009L86.194 30.0006Z" fill="#83B3D3"/>
</svg>
